HIERARCHY
ROOT Hips
{
  OFFSET 0 0 0
  CHANNELS 6 Xposition Yposition Zposition Zrotation Yrotation Xrotation
  JOINT LeftThigh
  {
    OFFSET 8.409438 0 -5.917753
    CHANNELS 3 Zrotation Yrotation Xrotation
    JOINT LeftLeg
    {
      OFFSET 0 0 -42.358652
      CHANNELS 3 Zrotation Yrotation Xrotation
      JOINT LeftFoot
      {
        OFFSET 0 0 -39.357303
        CHANNELS 3 Zrotation Yrotation Xrotation
      }
    }
  }
  JOINT RightThigh
  {
    OFFSET -8.409438 0 -5.917753
    CHANNELS 3 Zrotation Yrotation Xrotation
    JOINT RightLeg
    {
      OFFSET 0 0 -42.358652
      CHANNELS 3 Zrotation Yrotation Xrotation
      JOINT RightFoot
      {
        OFFSET 0 0 -39.357303
        CHANNELS 3 Zrotation Yrotation Xrotation
      }
    }
  }
  JOINT SpineLow
  {
    OFFSET 0 0 4.719101
    CHANNELS 3 Zrotation Yrotation Xrotation
    JOINT SpineMid
    {
      OFFSET 0 0 12.899191
      CHANNELS 3 Zrotation Yrotation Xrotation
      JOINT Chest
      {
        OFFSET 0 0 12.899191
        CHANNELS 3 Zrotation Yrotation Xrotation
        JOINT LeftShoulder
        {
          OFFSET 7.550562 1.41573 9.438202
          CHANNELS 3 Zrotation Yrotation Xrotation
          JOINT LeftArm
          {
            OFFSET 9.155056 0 4.247191
            CHANNELS 3 Zrotation Yrotation Xrotation
            JOINT LeftForearm
            {
              OFFSET 0 0 25.771955
              CHANNELS 3 Zrotation Yrotation Xrotation
              JOINT LeftHand
              {
                OFFSET 0 0 25.197169
                CHANNELS 3 Zrotation Yrotation Xrotation
              }
            }
          }
        }
        JOINT RightShoulder
        {
          OFFSET -7.550562 1.41573 9.438202
          CHANNELS 3 Zrotation Yrotation Xrotation
          JOINT RightArm
          {
            OFFSET -9.155056 0 4.247191
            CHANNELS 3 Zrotation Yrotation Xrotation
            JOINT RightForearm
            {
              OFFSET 0 0 -25.771955
              CHANNELS 3 Zrotation Yrotation Xrotation
              JOINT RightHand
              {
                OFFSET 0 0 -25.197169
                CHANNELS 3 Zrotation Yrotation Xrotation
              }
            }
          }
        }
        JOINT Neck
        {
          OFFSET 0 0 15.101124
          CHANNELS 3 Zrotation Yrotation Xrotation
          JOINT Head
          {
            OFFSET 0 0 11.325843
            CHANNELS 3 Zrotation Yrotation Xrotation
            End Site
            {
              OFFSET 0 0 14.157303
            }
          }
        }
      }
    }
  }
}
MOTION
Frames: 8
Frame Time: 0.0
0.0  101.685394  0.0  -0.76347  35.276364  -97.436139  0.80509  -22.957782  -3.00902  -17.57031  17.474982  18.008696  0.007823  3.112941  3.344274  -22.941412  11.786718  3.37819  -13.780793  6.762927  13.840043  2.751048  0.519898  -1.786641  0.311824  0.331171  2.83695  0.889851  0.867229  7.759055  0.889851  0.867229  7.759054  -22.278407  19.436769  -1.776525  122.632105  49.269298  -178.177845  -39.080806  7.548101  59.494906  50.123491  -10.213905  -28.135551  29.435519  -10.241901  8.23169  126.354861  45.919376  38.346948  -40.92008  0.279777  -105.985256  63.380375  -13.174704  22.282791  -11.329409  -5.736841  -1.17077  -8.500991  -4.282707  -0.984429  
0.0  101.685394  0.0  -0.485713  37.274409  -96.929584  0.066726  -22.602323  -3.513162  -18.100838  17.61602  17.869907  -0.20623  3.146587  3.214644  -23.636182  12.094682  3.011699  -14.993541  6.785368  14.095358  2.709751  0.65564  -1.757002  0.071632  0.460581  2.842614  0.249603  1.24854  7.772212  0.249603  1.24854  7.772212  -22.021475  18.053389  -2.173115  124.720031  47.846462  -176.505336  -38.36748  7.251959  60.516321  52.043286  -7.914845  -29.287738  29.683386  -10.582362  7.7097  123.064208  46.269214  37.197465  -40.392072  1.669134  -106.758295  63.544135  -13.3029  19.634457  -11.523558  -6.170467  -1.068723  -8.64514  -4.609675  -0.917925  
0.0  101.685394  0.0  -0.572505  38.173218  -96.955679  0.274013  -22.626592  -3.574225  -18.631884  17.640319  17.6947  -0.473938  3.171033  3.030223  -23.245518  12.09829  3.023495  -15.752049  6.840179  14.559593  2.42169  0.806413  -1.750293  -0.04845  0.51875  2.876848  -0.070576  1.421403  7.863651  -0.070576  1.421403  7.863651  -21.022111  16.729968  -2.239851  127.241091  46.096356  -174.426992  -37.500401  7.196299  62.109241  53.995636  -5.489541  -30.786197  30.140531  -10.836434  7.201162  119.473614  46.320164  36.161896  -39.417367  2.378159  -107.734725  64.362312  -12.990886  16.091538  -11.493364  -6.392167  -0.928093  -8.620812  -4.778703  -0.816369  
0.0  101.685394  0.0  -0.606043  38.859985  -97.022523  0.483777  -22.614677  -3.577311  -19.196889  17.765125  17.476113  -0.602121  3.141947  2.896524  -22.922266  12.174361  2.947837  -16.345304  6.990623  15.132939  2.215856  0.884139  -1.746994  -0.143147  0.510757  2.864213  -0.330258  1.410787  7.82708  -0.330258  1.410787  7.82708  -19.662851  15.960587  -1.76954  130.005835  44.123795  -172.150665  -36.498028  7.264891  64.240482  55.46395  -3.251221  -32.656594  30.479261  -10.90057  7.220497  115.913887  46.097782  35.516314  -38.811792  3.460276  -108.651093  65.092498  -12.5009  11.698834  -11.469041  -6.226575  -0.689603  -8.600346  -4.658951  -0.63424  
0.0  101.685394  0.0  -0.636126  39.090443  -97.16528  1.103557  -22.736047  -3.343304  -19.582793  17.77298  17.23807  -0.915036  3.131565  2.730617  -22.5773  12.316401  2.798455  -16.767089  7.024848  15.792853  2.136963  1.088596  -1.730164  -0.177943  0.414469  2.826736  -0.437267  1.151904  7.724224  -0.437267  1.151904  7.724223  -17.989525  15.99387  -1.013125  132.151341  41.806852  -170.363828  -35.629719  7.25839  66.847579  55.865016  -2.287985  -34.942762  30.414321  -10.586253  7.589115  112.405025  45.452032  35.154747  -38.730256  5.058677  -109.282062  65.672524  -11.596885  6.603622  -11.426922  -5.642453  -0.463603  -8.567541  -4.224929  -0.453433  
0.0  101.685394  0.0  -0.607915  38.872626  -97.349497  1.854163  -22.706899  -2.904395  -19.923247  17.627438  16.924006  -1.201782  3.091042  2.588824  -22.412298  12.583995  2.559845  -16.82759  7.01192  16.516513  2.171029  1.316875  -1.732383  -0.173791  0.319409  2.749145  -0.438082  0.891509  7.512592  -0.438082  0.891509  7.512593  -15.916468  16.413457  0.282734  133.628819  39.296709  -169.239592  -35.159231  7.38033  69.732304  55.094271  -3.876829  -37.263358  30.251494  -10.441351  8.414465  108.466984  44.650044  34.973384  -38.985475  7.836544  -109.902095  66.225114  -10.177857  1.53849  -11.425147  -4.871669  -0.121982  -8.564661  -3.652983  -0.182795  
0.0  101.685394  0.0  -0.521721  38.174478  -97.554907  2.791629  -22.529874  -2.202463  -20.029432  17.202552  16.675908  -1.412025  3.057725  2.460737  -22.50284  12.959765  2.201751  -16.559526  6.977828  17.257811  2.431467  1.539005  -1.737557  -0.161136  0.251651  2.683273  -0.411944  0.704749  7.333001  -0.411944  0.704749  7.333001  -13.175303  16.910487  1.831738  134.598973  36.917502  -168.84202  -35.226519  8.501667  72.865899  54.060224  -8.096086  -38.483487  30.002207  -10.1994  9.358162  104.368202  43.807159  34.204358  -39.991659  12.286199  -109.768666  67.118362  -7.363766  -3.816351  -10.999476  -4.153362  0.245624  -8.244318  -3.120638  0.109296  
0.0  101.685394  0.0  -0.3586  36.960704  -97.772084  3.827591  -22.310446  -1.230437  -20.050548  16.696217  16.286286  -1.61407  3.018369  2.306473  -22.788309  13.427895  1.729663  -15.932352  6.937096  17.985618  2.919329  1.775311  -1.7292  -0.088265  0.17834  2.565395  -0.222052  0.496199  7.011709  -0.222052  0.496199  7.011709  -10.205834  17.61004  3.84965  135.569983  34.547099  -169.100445  -35.544714  10.847429  76.216985  53.274073  -13.636447  -37.473869  29.45775  -9.969949  10.574104  99.568234  42.765028  32.742829  -41.674725  18.07199  -109.02366  68.55398  -2.489772  -9.934751  -10.907331  -3.137727  0.84856  -8.174112  -2.369336  0.58042  
